<svg width="40" height="41" viewBox="0 0 40 41" fill="none" xmlns="http://www.w3.org/2000/svg">
<path d="M12.9989 4.23926H26.9989C32.3323 4.23926 36.6656 8.57259 36.6656 13.9059V27.9059C36.6656 30.4697 35.6472 32.9284 33.8343 34.7413C32.0215 36.5541 29.5627 37.5726 26.9989 37.5726H12.9989C7.66561 37.5726 3.33228 33.2393 3.33228 27.9059V13.9059C3.33228 11.3422 4.35073 8.88341 6.16358 7.07056C7.97643 5.25771 10.4352 4.23926 12.9989 4.23926ZM12.6656 7.57259C11.0743 7.57259 9.54819 8.20473 8.42297 9.32995C7.29775 10.4552 6.66561 11.9813 6.66561 13.5726V28.2393C6.66561 31.5559 9.34894 34.2393 12.6656 34.2393H27.3323C28.9236 34.2393 30.4497 33.6071 31.5749 32.4819C32.7001 31.3567 33.3323 29.8306 33.3323 28.2393V13.5726C33.3323 10.2559 30.6489 7.57259 27.3323 7.57259H12.6656ZM28.7489 10.0726C29.3015 10.0726 29.8314 10.2921 30.2221 10.6828C30.6128 11.0735 30.8323 11.6034 30.8323 12.1559C30.8323 12.7085 30.6128 13.2384 30.2221 13.6291C29.8314 14.0198 29.3015 14.2393 28.7489 14.2393C28.1964 14.2393 27.6665 14.0198 27.2758 13.6291C26.8851 13.2384 26.6656 12.7085 26.6656 12.1559C26.6656 11.6034 26.8851 11.0735 27.2758 10.6828C27.6665 10.2921 28.1964 10.0726 28.7489 10.0726ZM19.9989 12.5726C22.2091 12.5726 24.3287 13.4506 25.8915 15.0134C27.4543 16.5762 28.3323 18.6958 28.3323 20.9059C28.3323 23.1161 27.4543 25.2357 25.8915 26.7985C24.3287 28.3613 22.2091 29.2393 19.9989 29.2393C17.7888 29.2393 15.6692 28.3613 14.1064 26.7985C12.5436 25.2357 11.6656 23.1161 11.6656 20.9059C11.6656 18.6958 12.5436 16.5762 14.1064 15.0134C15.6692 13.4506 17.7888 12.5726 19.9989 12.5726ZM19.9989 15.9059C18.6729 15.9059 17.4011 16.4327 16.4634 17.3704C15.5257 18.3081 14.9989 19.5798 14.9989 20.9059C14.9989 22.232 15.5257 23.5038 16.4634 24.4415C17.4011 25.3791 18.6729 25.9059 19.9989 25.9059C21.325 25.9059 22.5968 25.3791 23.5345 24.4415C24.4722 23.5038 24.9989 22.232 24.9989 20.9059C24.9989 19.5798 24.4722 18.3081 23.5345 17.3704C22.5968 16.4327 21.325 15.9059 19.9989 15.9059Z" fill="#2D2C2C"/>
</svg>
