<svg width="40" height="41" viewBox="0 0 40 41" fill="none" xmlns="http://www.w3.org/2000/svg">
<path d="M37.4333 10.9066C36.15 11.4899 34.7666 11.8732 33.3333 12.0566C34.8 11.1732 35.9333 9.77324 36.4666 8.08991C35.0833 8.92324 33.55 9.50658 31.9333 9.83991C30.6166 8.40658 28.7666 7.57324 26.6666 7.57324C22.75 7.57324 19.55 10.7732 19.55 14.7232C19.55 15.2899 19.6166 15.8399 19.7333 16.3566C13.8 16.0566 8.51665 13.2066 4.99998 8.88991C4.38332 9.93991 4.03332 11.1732 4.03332 12.4732C4.03332 14.9566 5.28332 17.1566 7.21665 18.4066C6.03332 18.4066 4.93332 18.0732 3.96665 17.5732V17.6232C3.96665 21.0899 6.43332 23.9899 9.69998 24.6399C8.6512 24.9269 7.55014 24.9669 6.48332 24.7566C6.93599 26.1774 7.82254 27.4206 9.01834 28.3115C10.2141 29.2023 11.6591 29.6961 13.15 29.7232C10.6227 31.724 7.48998 32.8054 4.26665 32.7899C3.69998 32.7899 3.13332 32.7566 2.56665 32.6899C5.73332 34.7232 9.49998 35.9066 13.5333 35.9066C26.6666 35.9066 33.8833 25.0066 33.8833 15.5566C33.8833 15.2399 33.8833 14.9399 33.8666 14.6232C35.2666 13.6232 36.4666 12.3566 37.4333 10.9066Z" fill="#2D2C2C"/>
</svg>
